Coordinates
version=1
nRows=17
nColumns=36
inDegrees=yes

Units are S.I. units (second, meters, Newtons, ...)
If the header above contains a line with 'inDegrees', this indicates whether rotational values are in degrees (yes) or radians (no).

endheader
time	pelvis_tilt	pelvis_list	pelvis_rotation	pelvis_tx	pelvis_ty	pelvis_tz	hip_flexion_r	hip_adduction_r	hip_rotation_r	knee_angle_r	knee_angle_r_beta	ankle_angle_r	subtalar_angle_r	mtp_angle_r	hip_flexion_l	hip_adduction_l	hip_rotation_l	knee_angle_l	knee_angle_l_beta	ankle_angle_l	subtalar_angle_l	mtp_angle_l	lumbar_extension	lumbar_bending	lumbar_rotation	arm_flex_r	arm_add_r	arm_rot_r	elbow_flex_r	pro_sup_r	arm_flex_l	arm_add_l	arm_rot_l	elbow_flex_l	pro_sup_l
      2.16666670	    -34.83258548	     -2.03857384	     -7.26997435	      1.52782011	      0.52924467	      0.12235801	    108.67780898	    -18.67253034	     -4.41377069	    108.62879459	      1.89593013	     41.26180778	      5.36001730	     -7.49999987	    113.78229723	    -18.61099043	      6.91720439	    111.00665109	      1.93743155	     40.22728397	     -1.35721995	     -7.49999987	    -22.54174753	      3.48649344	     15.03490305	     95.63297316	     -3.94030622	     78.92900730	    122.46850986	     83.20351186	     91.86937283	      4.74239018	     66.90451928	    119.86583798	    103.69957731
      2.18333330	    -34.81936206	     -2.04742156	     -7.31193207	      1.52789386	      0.52683310	      0.12284157	    108.78708319	    -18.79020369	     -4.46218542	    108.76570182	      1.89831961	     41.06483655	      5.32885575	     -7.49999987	    113.96422886	    -18.55902914	      6.98289037	    111.20233207	      1.94084683	     40.32587812	     -1.30684886	     -7.49999987	    -22.62116660	      3.51122632	     15.04320490	     96.00840592	     -3.50580432	     79.13130863	    122.70321722	     81.05392909	     92.49795035	      4.32852383	     67.31876397	    120.87024596	    101.10852643
      2.20000000	    -34.90028817	     -2.02354622	     -7.33873149	      1.52726969	      0.52720352	      0.12308660	    108.90184188	    -18.91519715	     -4.51894092	    108.83774465	      1.89957699	     40.97522054	      5.45595038	     -7.49999987	    114.14130456	    -18.54073679	      6.98354419	    111.30336980	      1.94261027	     40.36383338	     -1.24375912	     -7.49999987	    -22.53416909	      3.49937006	     15.02176110	     96.08019694	     -3.38977007	     79.07738805	    122.39801362	     79.04849185	     92.72377332	      3.95393838	     67.61334697	    120.87094392	     98.68504117
      2.21666670	    -34.92569162	     -2.07577680	     -7.38052913	      1.52713278	      0.52699395	      0.12272483	    108.82858583	    -18.96768222	     -4.66630368	    108.83945381	      1.89960683	     40.90256718	      5.49811309	     -7.49999987	    114.21562532	    -18.56999717	      7.03463682	    111.35778987	      1.94356008	     40.37482418	     -1.28763094	     -7.49999987	    -22.42201899	      3.53419438	     14.94016676	     96.26118913	     -3.26718678	     79.25779705	    122.40220900	     77.55598419	     92.94359132	      3.86401958	     67.83243586	    120.91732522	     96.60536520
      2.23333330	    -34.80583220	     -2.10848406	     -7.46676287	      1.53108984	      0.52789255	      0.12020988	    108.54327549	    -19.00636760	     -4.81843719	    108.75608978	      1.89815185	     40.80357440	      5.43821805	     -7.49999987	    114.00871271	    -18.65278450	      7.05227015	    111.37792664	      1.94391153	     40.43993410	     -1.38240469	     -7.49999987	    -22.46522260	      3.56899345	     14.76015244	     96.11319301	     -3.19938358	     79.55288672	    122.57984960	     77.64738244	     92.52149825	      4.17775100	     68.13204023	    120.94838629	     96.71811369
      2.25000000	    -34.90169738	     -2.04421533	     -7.55152543	      1.53037702	      0.52986279	      0.11929887	    108.47828178	    -19.03726628	     -4.89312732	    108.60121688	      1.89544881	     40.76954182	      5.60748796	     -7.49999987	    113.92710571	    -18.71068853	      6.95467606	    111.31875145	      1.94287873	     40.55735077	     -1.24330037	     -7.49999987	    -22.12135639	      3.62026285	     14.77313346	     96.09675196	     -3.21506571	     79.77269051	    123.05349610	     76.08277213	     92.24659107	      4.61433206	     68.28552530	    120.91617527	     94.24102030
      2.26666670	    -35.10809909	     -2.01310683	     -7.54738087	      1.52559592	      0.53540606	      0.12199029	    108.28465316	    -19.05783406	     -5.10084266	    108.12837248	      1.88719611	     40.68493062	      5.61616525	     -7.49999987	    113.79184064	    -18.70791132	      6.76373797	    110.93669374	      1.93621057	     40.58837873	     -1.24743042	     -7.49999987	    -22.02947655	      3.58611088	     14.98644109	     96.38418715	     -3.33472579	     79.60662761	    122.89002934	     76.11418269	     92.35154020	      4.50577981	     68.19182917	    120.79271658	     94.31173798
      2.28333330	    -35.02247032	     -2.19627088	     -7.71099455	      1.52607887	      0.54456447	      0.12215068	    107.39665391	    -18.85529983	     -5.64792872	    107.26439421	      1.87211685	     40.28484391	      5.48837907	     -7.49999987	    113.22586957	    -18.84131047	      6.80485946	    110.33798460	      1.92576112	     40.61421498	     -1.18089827	     -7.49999987	    -22.41886001	      3.71684953	     15.68342216	     96.81674111	     -2.90122020	     79.17155507	    122.49933350	     83.74271347	     91.97751555	      5.14350829	     66.51497731	    120.59910280	    104.95428049
      2.30000000	    -35.21561251	     -2.08822674	     -7.82343123	      1.52527667	      0.54859210	      0.12129398	    106.92711986	    -18.62418356	     -5.89142809	    106.31820194	      1.85560268	     39.99568363	      5.73073837	     -7.49999987	    112.72447996	    -19.01121059	      6.47596903	    109.56599387	      1.91228734	     40.57971539	     -1.09445039	     -7.49999987	    -22.11264715	      3.65005516	     15.58543192	     96.87558628	     -2.30371085	     78.51983425	    122.77007184	     82.35268803	     92.37392220	      5.94556886	     66.14471908	    120.22876914	    103.63035819
      2.31666670	    -35.16432866	     -2.06414304	     -7.88712048	      1.52516673	      0.55596052	      0.12072434	    105.97109692	    -18.43402580	     -6.27089118	    105.19205853	      1.83594777	     39.78010360	      5.78515760	     -7.49999987	    111.76346401	    -19.11883481	      6.11728982	    108.60069466	      1.89543969	     40.64850171	     -1.10004894	     -7.49999987	    -22.06530463	      3.60235200	     15.54239954	     96.31069639	     -2.72107036	     78.31792869	    122.57111562	     80.15595229	     92.57576019	      5.63588008	     66.39867253	    119.72631998	    101.16636046
      2.33333330	    -35.12620420	     -2.11977136	     -7.95625739	      1.52016692	      0.56145553	      0.12404434	    105.07332100	    -18.15478548	     -6.68811357	    104.07666352	      1.81648045	     39.39344056	      5.64108673	     -7.49999987	    110.94040450	    -19.24521891	      5.90690204	    107.65154966	      1.87887399	     40.46427596	     -1.25115015	     -7.49999987	    -22.07948020	      3.54099096	     16.06038325	     96.76843190	     -2.86207632	     78.10854148	    122.00056122	     80.35092283	     93.46848717	      5.15626262	     66.28580765	    120.03007546	    101.41471713
      2.35000000	    -35.16951022	     -2.16022022	     -7.95358358	      1.50723278	      0.56761381	      0.13104545	    104.37029411	    -17.86516520	     -7.13245507	    102.93686011	      1.79658713	     38.91123457	      5.58217015	     -7.49999987	    110.34210795	    -19.36974965	      5.66673417	    106.59886629	      1.86050120	     40.02675215	     -1.48705157	     -7.49999987	    -22.24144430	      3.33551365	     16.51249186	     98.91469049	     -2.38712356	     77.33120626	    121.08516013	     80.49505531	     95.40384594	      4.51913787	     65.96142471	    120.71404166	    101.56342174
      2.36666670	    -35.27620999	     -2.25876767	     -8.00017135	      1.51725380	      0.57903129	      0.13167012	    103.48373120	    -17.52475431	     -7.72071183	    101.65066473	      1.77413879	     38.53355548	      5.71137721	     -7.49999987	    109.57522261	    -19.58118380	      5.46782231	    105.33137728	      1.83837934	     39.83013252	     -1.55074660	     -7.49999987	    -21.99650007	      3.23245578	     16.63802005	     98.40569481	     -2.15307570	     77.86505533	    120.73941945	     80.03657101	     94.57248676	      4.55417593	     67.44543822	    122.17653109	     99.84186169
      2.38333330	    -35.25163326	     -2.38283479	     -8.09187732	      1.51361261	      0.58569799	      0.13322724	    102.43132104	    -17.08507206	     -8.24099786	    100.28398033	      1.75028564	     38.14666708	      5.70383142	     -7.49999987	    108.63666602	    -19.80518767	      5.31365445	    104.06585933	      1.81629188	     39.57431120	     -1.69234389	     -7.49999987	    -21.71596656	      2.93805248	     16.70832716	     99.04810252	     -1.61573155	     76.06881946	    121.40837613	     80.07685888	     95.59323149	      4.29939553	     65.40811915	    123.49114486	     99.86875846
      2.40000000	    -35.09155488	     -2.50616500	     -8.08851852	      1.51025289	      0.59945487	      0.13705599	    101.05972948	    -16.64240830	     -8.75278505	     98.66355715	      1.72200392	     37.72051400	      5.82994758	     -7.49999987	    107.34022417	    -20.00468820	      4.99112745	    102.51545829	      1.78923228	     39.35894311	     -1.65805280	     -7.49999987	    -21.66215706	      2.68372610	     16.42103130	     99.63209073	     -1.32716851	     75.51757125	    120.56251663	     81.75994820	     96.28162096	      4.22196392	     65.16079729	    122.82670149	    101.79994062
      2.41666670	    -34.65965317	     -2.55812935	     -8.13124948	      1.52428724	      0.61596956	      0.13485225	     99.05060137	    -16.19446544	     -9.23360894	     96.73337166	      1.68831583	     37.44888368	      5.98749778	     -7.49999987	    105.23008122	    -20.15659358	      4.52592339	    100.69928968	      1.75753416	     39.28612219	     -1.60802691	     -7.49999987	    -21.75201891	      2.41970849	     16.22363176	     97.57628861	     -0.99962952	     76.72419247	    120.52890350	     81.13642986	     94.15474980	      4.49858507	     67.23336973	    122.93138284	    100.25626993
      2.43333330	    -34.71517759	     -2.52319277	     -8.31549384	      1.52304159	      0.62806436	      0.12656147	     97.44535466	    -15.68072615	     -9.67274413	     94.52535639	      1.64977870	     36.83924640	      6.00947510	     -7.49999987	    103.48056957	    -20.30697124	      3.97551679	     98.78341249	      1.72409579	     39.16921761	     -1.19234242	     -7.49999987	    -21.20302050	      2.44987155	     16.15124160	     97.35858454	     -1.79897700	     75.69323701	    122.30732978	     80.74392740	     93.51934220	      4.85540860	     66.02894521	    122.09284434	     98.67264778
